<?xml version="1.0" encoding="UTF-8" standalone="no"?>
<!DOCTYPE svg PUBLIC "-//W3C//DTD SVG 1.1//EN"
 "http://www.w3.org/Graphics/SVG/1.1/DTD/svg11.dtd">
<!-- Generated by graphviz version 2.38.0 (20140413.2041)
 -->
<!-- Title: snakemake_dag Pages: 1 -->
<svg width="894pt" height="476pt"
 viewBox="0.00 0.00 894.00 476.00" xmlns="http://www.w3.org/2000/svg" xmlns:xlink="http://www.w3.org/1999/xlink">
<g id="graph0" class="graph" transform="scale(1 1) rotate(0) translate(4 472)">
<title>snakemake_dag</title>
<polygon fill="white" stroke="none" points="-4,4 -4,-472 890,-472 890,4 -4,4"/>
<!-- 0 -->
<g id="node1" class="node"><title>0</title>
<path fill="none" stroke="#59d856" stroke-width="2" stroke-dasharray="5,2" d="M83,-468C83,-468 12,-468 12,-468 6,-468 0,-462 0,-456 0,-456 0,-444 0,-444 0,-438 6,-432 12,-432 12,-432 83,-432 83,-432 89,-432 95,-438 95,-444 95,-444 95,-456 95,-456 95,-462 89,-468 83,-468"/>
<text text-anchor="middle" x="47.5" y="-453" font-family="sans" font-size="10.00">convert</text>
<text text-anchor="middle" x="47.5" y="-442" font-family="sans" font-size="10.00">sample: 1.7&#45;SP6</text>
</g>
<!-- 4 -->
<g id="node5" class="node"><title>4</title>
<path fill="none" stroke="#d89556" stroke-width="2" stroke-dasharray="5,2" d="M460,-396C460,-396 425,-396 425,-396 419,-396 413,-390 413,-384 413,-384 413,-372 413,-372 413,-366 419,-360 425,-360 425,-360 460,-360 460,-360 466,-360 472,-366 472,-372 472,-372 472,-384 472,-384 472,-390 466,-396 460,-396"/>
<text text-anchor="middle" x="442.5" y="-375.5" font-family="sans" font-size="10.00">combine</text>
</g>
<!-- 0&#45;&gt;4 -->
<g id="edge9" class="edge"><title>0&#45;&gt;4</title>
<path fill="none" stroke="grey" stroke-width="2" d="M95.0375,-434.075C97.8902,-433.334 100.727,-432.634 103.5,-432 210.488,-407.523 339.069,-390.826 402.745,-383.389"/>
<polygon fill="grey" stroke="grey" stroke-width="2" points="403.228,-386.856 412.761,-382.233 402.426,-379.902 403.228,-386.856"/>
</g>
<!-- 1 -->
<g id="node2" class="node"><title>1</title>
<path fill="none" stroke="#d85656" stroke-width="2" stroke-dasharray="5,2" d="M457.5,-252C457.5,-252 427.5,-252 427.5,-252 421.5,-252 415.5,-246 415.5,-240 415.5,-240 415.5,-228 415.5,-228 415.5,-222 421.5,-216 427.5,-216 427.5,-216 457.5,-216 457.5,-216 463.5,-216 469.5,-222 469.5,-228 469.5,-228 469.5,-240 469.5,-240 469.5,-246 463.5,-252 457.5,-252"/>
<text text-anchor="middle" x="442.5" y="-231.5" font-family="sans" font-size="10.00">fq2fa</text>
</g>
<!-- 8 -->
<g id="node9" class="node"><title>8</title>
<path fill="none" stroke="#d6d856" stroke-width="2" stroke-dasharray="5,2" d="M470,-180C470,-180 415,-180 415,-180 409,-180 403,-174 403,-168 403,-168 403,-156 403,-156 403,-150 409,-144 415,-144 415,-144 470,-144 470,-144 476,-144 482,-150 482,-156 482,-156 482,-168 482,-168 482,-174 476,-180 470,-180"/>
<text text-anchor="middle" x="442.5" y="-159.5" font-family="sans" font-size="10.00">bowtie_build</text>
</g>
<!-- 1&#45;&gt;8 -->
<g id="edge12" class="edge"><title>1&#45;&gt;8</title>
<path fill="none" stroke="grey" stroke-width="2" d="M442.5,-215.697C442.5,-207.983 442.5,-198.712 442.5,-190.112"/>
<polygon fill="grey" stroke="grey" stroke-width="2" points="446,-190.104 442.5,-180.104 439,-190.104 446,-190.104"/>
</g>
<!-- 2 -->
<g id="node3" class="node"><title>2</title>
<path fill="none" stroke="#59d856" stroke-width="2" stroke-dasharray="5,2" d="M196,-468C196,-468 125,-468 125,-468 119,-468 113,-462 113,-456 113,-456 113,-444 113,-444 113,-438 119,-432 125,-432 125,-432 196,-432 196,-432 202,-432 208,-438 208,-444 208,-444 208,-456 208,-456 208,-462 202,-468 196,-468"/>
<text text-anchor="middle" x="160.5" y="-453" font-family="sans" font-size="10.00">convert</text>
<text text-anchor="middle" x="160.5" y="-442" font-family="sans" font-size="10.00">sample: 1.1&#45;SP6</text>
</g>
<!-- 2&#45;&gt;4 -->
<g id="edge5" class="edge"><title>2&#45;&gt;4</title>
<path fill="none" stroke="grey" stroke-width="2" d="M208.099,-434.323C210.936,-433.519 213.753,-432.738 216.5,-432 281.312,-414.582 357.436,-397.398 402.729,-387.514"/>
<polygon fill="grey" stroke="grey" stroke-width="2" points="403.704,-390.884 412.733,-385.34 402.217,-384.043 403.704,-390.884"/>
</g>
<!-- 3 -->
<g id="node4" class="node"><title>3</title>
<path fill="none" stroke="#59d856" stroke-width="2" stroke-dasharray="5,2" d="M309,-468C309,-468 238,-468 238,-468 232,-468 226,-462 226,-456 226,-456 226,-444 226,-444 226,-438 232,-432 238,-432 238,-432 309,-432 309,-432 315,-432 321,-438 321,-444 321,-444 321,-456 321,-456 321,-462 315,-468 309,-468"/>
<text text-anchor="middle" x="273.5" y="-453" font-family="sans" font-size="10.00">convert</text>
<text text-anchor="middle" x="273.5" y="-442" font-family="sans" font-size="10.00">sample: 1.8&#45;SP6</text>
</g>
<!-- 3&#45;&gt;4 -->
<g id="edge7" class="edge"><title>3&#45;&gt;4</title>
<path fill="none" stroke="grey" stroke-width="2" d="M314.842,-431.876C341.909,-420.665 377.051,-406.109 403.61,-395.108"/>
<polygon fill="grey" stroke="grey" stroke-width="2" points="405.076,-398.289 412.976,-391.229 402.397,-391.822 405.076,-398.289"/>
</g>
<!-- 7 -->
<g id="node8" class="node"><title>7</title>
<path fill="none" stroke="#56d8d8" stroke-width="2" stroke-dasharray="5,2" d="M493.5,-324C493.5,-324 391.5,-324 391.5,-324 385.5,-324 379.5,-318 379.5,-312 379.5,-312 379.5,-300 379.5,-300 379.5,-294 385.5,-288 391.5,-288 391.5,-288 493.5,-288 493.5,-288 499.5,-288 505.5,-294 505.5,-300 505.5,-300 505.5,-312 505.5,-312 505.5,-318 499.5,-324 493.5,-324"/>
<text text-anchor="middle" x="442.5" y="-303.5" font-family="sans" font-size="10.00">reverse_complemeted</text>
</g>
<!-- 4&#45;&gt;7 -->
<g id="edge11" class="edge"><title>4&#45;&gt;7</title>
<path fill="none" stroke="grey" stroke-width="2" d="M442.5,-359.697C442.5,-351.983 442.5,-342.712 442.5,-334.112"/>
<polygon fill="grey" stroke="grey" stroke-width="2" points="446,-334.104 442.5,-324.104 439,-334.104 446,-334.104"/>
</g>
<!-- 5 -->
<g id="node6" class="node"><title>5</title>
<path fill="none" stroke="#56d89a" stroke-width="2" stroke-dasharray="5,2" d="M469,-108C469,-108 416,-108 416,-108 410,-108 404,-102 404,-96 404,-96 404,-84 404,-84 404,-78 410,-72 416,-72 416,-72 469,-72 469,-72 475,-72 481,-78 481,-84 481,-84 481,-96 481,-96 481,-102 475,-108 469,-108"/>
<text text-anchor="middle" x="442.5" y="-87.5" font-family="sans" font-size="10.00">bowtie_map</text>
</g>
<!-- 9 -->
<g id="node10" class="node"><title>9</title>
<path fill="none" stroke="#97d856" stroke-width="2" stroke-dasharray="5,2" d="M457.5,-36C457.5,-36 427.5,-36 427.5,-36 421.5,-36 415.5,-30 415.5,-24 415.5,-24 415.5,-12 415.5,-12 415.5,-6 421.5,-0 427.5,-0 427.5,-0 457.5,-0 457.5,-0 463.5,-0 469.5,-6 469.5,-12 469.5,-12 469.5,-24 469.5,-24 469.5,-30 463.5,-36 457.5,-36"/>
<text text-anchor="middle" x="442.5" y="-15.5" font-family="sans" font-size="10.00">view</text>
</g>
<!-- 5&#45;&gt;9 -->
<g id="edge13" class="edge"><title>5&#45;&gt;9</title>
<path fill="none" stroke="grey" stroke-width="2" d="M442.5,-71.6966C442.5,-63.9827 442.5,-54.7125 442.5,-46.1124"/>
<polygon fill="grey" stroke="grey" stroke-width="2" points="446,-46.1043 442.5,-36.1043 439,-46.1044 446,-46.1043"/>
</g>
<!-- 6 -->
<g id="node7" class="node"><title>6</title>
<path fill="none" stroke="#59d856" stroke-width="2" stroke-dasharray="5,2" d="M422,-468C422,-468 351,-468 351,-468 345,-468 339,-462 339,-456 339,-456 339,-444 339,-444 339,-438 345,-432 351,-432 351,-432 422,-432 422,-432 428,-432 434,-438 434,-444 434,-444 434,-456 434,-456 434,-462 428,-468 422,-468"/>
<text text-anchor="middle" x="386.5" y="-453" font-family="sans" font-size="10.00">convert</text>
<text text-anchor="middle" x="386.5" y="-442" font-family="sans" font-size="10.00">sample: 1.2&#45;SP6</text>
</g>
<!-- 6&#45;&gt;4 -->
<g id="edge2" class="edge"><title>6&#45;&gt;4</title>
<path fill="none" stroke="grey" stroke-width="2" d="M400.343,-431.697C406.989,-423.389 415.078,-413.277 422.387,-404.141"/>
<polygon fill="grey" stroke="grey" stroke-width="2" points="425.303,-406.099 428.817,-396.104 419.836,-401.727 425.303,-406.099"/>
</g>
<!-- 7&#45;&gt;1 -->
<g id="edge1" class="edge"><title>7&#45;&gt;1</title>
<path fill="none" stroke="grey" stroke-width="2" d="M442.5,-287.697C442.5,-279.983 442.5,-270.712 442.5,-262.112"/>
<polygon fill="grey" stroke="grey" stroke-width="2" points="446,-262.104 442.5,-252.104 439,-262.104 446,-262.104"/>
</g>
<!-- 8&#45;&gt;5 -->
<g id="edge10" class="edge"><title>8&#45;&gt;5</title>
<path fill="none" stroke="grey" stroke-width="2" d="M442.5,-143.697C442.5,-135.983 442.5,-126.712 442.5,-118.112"/>
<polygon fill="grey" stroke="grey" stroke-width="2" points="446,-118.104 442.5,-108.104 439,-118.104 446,-118.104"/>
</g>
<!-- 10 -->
<g id="node11" class="node"><title>10</title>
<path fill="none" stroke="#59d856" stroke-width="2" stroke-dasharray="5,2" d="M535,-468C535,-468 464,-468 464,-468 458,-468 452,-462 452,-456 452,-456 452,-444 452,-444 452,-438 458,-432 464,-432 464,-432 535,-432 535,-432 541,-432 547,-438 547,-444 547,-444 547,-456 547,-456 547,-462 541,-468 535,-468"/>
<text text-anchor="middle" x="499.5" y="-453" font-family="sans" font-size="10.00">convert</text>
<text text-anchor="middle" x="499.5" y="-442" font-family="sans" font-size="10.00">sample: 1.5&#45;SP6</text>
</g>
<!-- 10&#45;&gt;4 -->
<g id="edge6" class="edge"><title>10&#45;&gt;4</title>
<path fill="none" stroke="grey" stroke-width="2" d="M485.41,-431.697C478.577,-423.305 470.243,-413.07 462.744,-403.861"/>
<polygon fill="grey" stroke="grey" stroke-width="2" points="465.456,-401.649 456.428,-396.104 460.028,-406.069 465.456,-401.649"/>
</g>
<!-- 11 -->
<g id="node12" class="node"><title>11</title>
<path fill="none" stroke="#59d856" stroke-width="2" stroke-dasharray="5,2" d="M648,-468C648,-468 577,-468 577,-468 571,-468 565,-462 565,-456 565,-456 565,-444 565,-444 565,-438 571,-432 577,-432 577,-432 648,-432 648,-432 654,-432 660,-438 660,-444 660,-444 660,-456 660,-456 660,-462 654,-468 648,-468"/>
<text text-anchor="middle" x="612.5" y="-453" font-family="sans" font-size="10.00">convert</text>
<text text-anchor="middle" x="612.5" y="-442" font-family="sans" font-size="10.00">sample: 1.3&#45;SP6</text>
</g>
<!-- 11&#45;&gt;4 -->
<g id="edge4" class="edge"><title>11&#45;&gt;4</title>
<path fill="none" stroke="grey" stroke-width="2" d="M570.913,-431.876C543.686,-420.665 508.336,-406.109 481.62,-395.108"/>
<polygon fill="grey" stroke="grey" stroke-width="2" points="482.779,-391.8 472.199,-391.229 480.113,-398.273 482.779,-391.8"/>
</g>
<!-- 12 -->
<g id="node13" class="node"><title>12</title>
<path fill="none" stroke="#59d856" stroke-width="2" stroke-dasharray="5,2" d="M761,-468C761,-468 690,-468 690,-468 684,-468 678,-462 678,-456 678,-456 678,-444 678,-444 678,-438 684,-432 690,-432 690,-432 761,-432 761,-432 767,-432 773,-438 773,-444 773,-444 773,-456 773,-456 773,-462 767,-468 761,-468"/>
<text text-anchor="middle" x="725.5" y="-453" font-family="sans" font-size="10.00">convert</text>
<text text-anchor="middle" x="725.5" y="-442" font-family="sans" font-size="10.00">sample: 1.6&#45;SP6</text>
</g>
<!-- 12&#45;&gt;4 -->
<g id="edge8" class="edge"><title>12&#45;&gt;4</title>
<path fill="none" stroke="grey" stroke-width="2" d="M677.902,-434.319C675.064,-433.516 672.248,-432.737 669.5,-432 604.226,-414.492 527.519,-397.273 482.069,-387.416"/>
<polygon fill="grey" stroke="grey" stroke-width="2" points="482.551,-383.94 472.038,-385.25 481.074,-390.782 482.551,-383.94"/>
</g>
<!-- 13 -->
<g id="node14" class="node"><title>13</title>
<path fill="none" stroke="#59d856" stroke-width="2" stroke-dasharray="5,2" d="M874,-468C874,-468 803,-468 803,-468 797,-468 791,-462 791,-456 791,-456 791,-444 791,-444 791,-438 797,-432 803,-432 803,-432 874,-432 874,-432 880,-432 886,-438 886,-444 886,-444 886,-456 886,-456 886,-462 880,-468 874,-468"/>
<text text-anchor="middle" x="838.5" y="-453" font-family="sans" font-size="10.00">convert</text>
<text text-anchor="middle" x="838.5" y="-442" font-family="sans" font-size="10.00">sample: 1.4&#45;SP6</text>
</g>
<!-- 13&#45;&gt;4 -->
<g id="edge3" class="edge"><title>13&#45;&gt;4</title>
<path fill="none" stroke="grey" stroke-width="2" d="M790.963,-434.074C788.11,-433.332 785.273,-432.634 782.5,-432 675.199,-407.477 546.238,-390.8 482.373,-383.378"/>
<polygon fill="grey" stroke="grey" stroke-width="2" points="482.661,-379.888 472.327,-382.224 481.862,-386.842 482.661,-379.888"/>
</g>
</g>
</svg>
